<svg width="60" height="60" viewBox="0 0 60 60" fill="none" xmlns="http://www.w3.org/2000/svg">
<path d="M21.5147 8.48531L8.48528 21.5147C3.79899 26.201 3.79899 33.799 8.48528 38.4853L21.5147 51.5147C26.201 56.201 33.799 56.201 38.4852 51.5147L51.5147 38.4853C56.2009 33.799 56.2009 26.201 51.5147 21.5147L38.4852 8.48531C33.799 3.79902 26.201 3.79902 21.5147 8.48531Z" fill="#181818"/>
<path d="M30.6438 38.778C28.821 38.778 27.2124 38.4042 25.818 37.6566C24.4236 36.909 23.3358 35.8506 22.5546 34.4814C21.7734 33.1122 21.3828 31.4952 21.3828 29.6304C21.3828 28.2696 21.6096 27.0264 22.0632 25.9008C22.5252 24.7668 23.172 23.7882 24.0036 22.965C24.8436 22.1418 25.8306 21.5076 26.9646 21.0624C28.107 20.6088 29.3544 20.382 30.7068 20.382C32.1768 20.382 33.4116 20.5668 34.4112 20.9364C35.4108 21.306 36.3138 21.831 37.1202 22.5114L35.0286 25.9512C34.5414 25.4472 33.9534 25.0734 33.2646 24.8298C32.5758 24.5778 31.8156 24.4518 30.984 24.4518C30.1608 24.4518 29.4258 24.5736 28.779 24.8172C28.1406 25.0524 27.5946 25.3926 27.141 25.8378C26.6958 26.283 26.3556 26.8206 26.1204 27.4506C25.8852 28.0806 25.7676 28.7862 25.7676 29.5674C25.7676 30.6426 25.9776 31.5624 26.3976 32.3268C26.826 33.0912 27.435 33.6792 28.2246 34.0908C29.0142 34.494 29.9592 34.6956 31.0596 34.6956C31.8492 34.6956 32.6304 34.578 33.4032 34.3428C34.1844 34.0992 34.9236 33.7086 35.6208 33.171L37.536 36.6864C36.7212 37.3164 35.7468 37.8246 34.6128 38.211C33.4788 38.589 32.1558 38.778 30.6438 38.778Z" fill="white"/>
</svg>
